<svg
  width="96"
  height="96"
  viewBox="0 0 96 96"
  fill="none"
  xmlns="http://www.w3.org/2000/svg"
>
  <rect
    opacity="0.5"
    x="4"
    y="8.25"
    width="87"
    height="87"
    rx="7.25"
    fill="url(#paint0_linear_2_26)"
  />
  <rect
    x="4"
    y="30"
    width="87"
    height="65.25"
    rx="7.25"
    fill="url(#paint1_linear_2_26)"
  />
  <path
    fill-rule="evenodd"
    clip-rule="evenodd"
    d="M43.8749 54.3964L39.7643 56.7697C38.0305 57.7707 35.8135 57.1767 34.8124 55.4428C33.8114 53.709 34.4055 51.492 36.1393 50.491L45.5573 45.0535C45.6199 45.0174 45.6832 44.9833 45.747 44.9513C46.2665 44.6637 46.8641 44.5 47.4999 44.5C49.502 44.5 51.1249 46.123 51.1249 48.125V73.5C51.1249 75.502 49.502 77.125 47.4999 77.125C45.4979 77.125 43.8749 75.502 43.8749 73.5V54.3964Z"
    fill="url(#paint2_linear_2_26)"
  />
  <path
    fill-rule="evenodd"
    clip-rule="evenodd"
    d="M22.125 1V15.5H29.375V1H22.125ZM65.625 1V15.5H72.875V1H65.625Z"
    fill="url(#paint3_linear_2_26)"
  />
  <defs>
    <linearGradient
      id="paint0_linear_2_26"
      x1="118.187"
      y1="48.125"
      x2="-50.3412"
      y2="50.5123"
      gradientUnits="userSpaceOnUse"
    >
      <stop stop-color="#E44A36" />
      <stop offset="1" stop-color="white" stop-opacity="0" />
      <stop offset="1" stop-color="#FBF2ED" stop-opacity="0" />
    </linearGradient>
    <linearGradient
      id="paint1_linear_2_26"
      x1="118.187"
      y1="59.9063"
      x2="-50.3149"
      y2="63.0888"
      gradientUnits="userSpaceOnUse"
    >
      <stop stop-color="#E44A36" />
      <stop offset="1" stop-color="white" stop-opacity="0" />
      <stop offset="1" stop-color="#FBF2ED" stop-opacity="0" />
    </linearGradient>
    <linearGradient
      id="paint2_linear_2_26"
      x1="56.3745"
      y1="59.4531"
      x2="-5.06255"
      y2="59.4481"
      gradientUnits="userSpaceOnUse"
    >
      <stop stop-color="#E44A36" />
      <stop offset="1" stop-color="#FBF2ED" stop-opacity="0" />
      <stop offset="1" stop-color="white" stop-opacity="0" />
    </linearGradient>
    <linearGradient
      id="paint3_linear_2_26"
      x1="88.7344"
      y1="7.64583"
      x2="-96.8705"
      y2="7.54284"
      gradientUnits="userSpaceOnUse"
    >
      <stop stop-color="#E44A36" />
      <stop offset="1" stop-color="#FBF2ED" stop-opacity="0" />
      <stop offset="1" stop-color="white" stop-opacity="0" />
    </linearGradient>
  </defs>
</svg>
