<svg
  xmlns="http://www.w3.org/2000/svg"
  aria-hidden="true"
  focusable="false"
  viewBox="0 0 15 16"
  fill="none"
>
  <path
    fill="currentColor"
    d="m11.934.838 1.539 1.356L9.547 6.46 8.009 5.105 11.934.838Z"
  />
  <path
    fill="currentColor"
    d="m11.934.838 1.539 1.356L9.547 6.46 8.009 5.105 11.934.838Z"
  />
  <path
    fill="currentColor"
    d="m17.496 7.54-.43 1.982-5.738-1.194.43-1.982 5.738 1.194Z"
  />
  <path
    fill="currentColor"
    d="m17.496 7.54-.43 1.982-5.738-1.194.43-1.982 5.738 1.194Z"
  />
  <path
    fill="currentColor"
    d="m14.348 15.606-1.97.626-1.812-5.46 1.97-.627 1.812 5.461Z"
  />
  <path
    fill="currentColor"
    d="m14.348 15.606-1.97.626-1.812-5.46 1.97-.627 1.812 5.461Z"
  />
  <path
    fill="currentColor"
    d="M5.637 16.97 4.1 15.614l3.925-4.267 1.538 1.356-3.925 4.267Z"
  />
  <path
    fill="currentColor"
    d="M5.637 16.97 4.1 15.614l3.925-4.267 1.538 1.356-3.925 4.267Z"
  />
  <path
    fill="currentColor"
    d="m.075 10.268.43-1.982L6.243 9.48l-.43 1.982-5.738-1.194Z"
  />
  <path
    fill="currentColor"
    d="m.075 10.268.43-1.982L6.243 9.48l-.43 1.982-5.738-1.194Z"
  />
  <path
    fill="currentColor"
    d="m3.223 2.202 1.97-.626 1.812 5.46-1.969.627-1.813-5.461Z"
  />
  <path
    fill="currentColor"
    d="m3.223 2.202 1.97-.626 1.812 5.46-1.969.627-1.813-5.461Z"
  />
</svg>
