<svg
  xmlns="http://www.w3.org/2000/svg"
  aria-hidden="true"
  focusable="false"
  fill="none"
  viewBox="0 0 16 24"
>
  <path
    fill="var(--_color)"
    fill-rule="evenodd"
    d="M.305 9.134A1.118 1.118 0 0 1 0 8.363c0-.29.11-.566.305-.77L7.25.318C7.446.115 7.71 0 7.987 0c.276 0 .54.115.736.32l6.945 7.272c.103.1.185.22.242.354a1.132 1.132 0 0 1-.215 1.216 1.04 1.04 0 0 1-.347.24 1 1 0 0 1-.814-.015 1.044 1.044 0 0 1-.338-.253L9.028 3.723v11.913c0 1.037.306 2.618 1.194 3.909.847 1.233 2.27 2.273 4.71 2.273.277 0 .541.115.737.32.195.204.305.482.305.771 0 .29-.11.567-.305.771-.196.205-.46.32-.737.32-3.117 0-5.167-1.385-6.402-3.181-1.196-1.74-1.585-3.797-1.585-5.183V3.723L1.777 9.134c-.195.204-.46.319-.736.319-.276 0-.541-.115-.736-.319Z"
    clip-rule="evenodd"
  />
  <path
    fill="var(--_color)"
    fill-opacity=".2"
    fill-rule="evenodd"
    d="M.305 9.134A1.118 1.118 0 0 1 0 8.363c0-.29.11-.566.305-.77L7.25.318C7.446.115 7.71 0 7.987 0c.276 0 .54.115.736.32l6.945 7.272c.103.1.185.22.242.354a1.132 1.132 0 0 1-.215 1.216 1.04 1.04 0 0 1-.347.24 1 1 0 0 1-.814-.015 1.044 1.044 0 0 1-.338-.253L9.028 3.723v11.913c0 1.037.306 2.618 1.194 3.909.847 1.233 2.27 2.273 4.71 2.273.277 0 .541.115.737.32.195.204.305.482.305.771 0 .29-.11.567-.305.771-.196.205-.46.32-.737.32-3.117 0-5.167-1.385-6.402-3.181-1.196-1.74-1.585-3.797-1.585-5.183V3.723L1.777 9.134c-.195.204-.46.319-.736.319-.276 0-.541-.115-.736-.319Z"
    clip-rule="evenodd"
  />
</svg>
