<svg xmlns="http://www.w3.org/2000/svg" width="152" height="152"><svg xmlns="http://www.w3.org/2000/svg" width="152" height="152" fill="none"><path fill="#E23822" d="m103.11 4 13.377 12.044-34.126 37.9L68.984 41.9 103.11 4Zm48.361 59.53-3.742 17.607-49.886-10.603 3.743-17.607 49.885 10.604Zm-27.374 71.648-17.119 5.562-15.76-48.504 17.119-5.562 15.76 48.504Zm-75.736 12.117L34.984 135.25l34.126-37.9 13.377 12.044-34.126 37.901ZM0 87.764l3.742-17.606L53.628 80.76l-3.742 17.607L0 87.764Zm27.375-71.647 17.118-5.563 15.76 48.504-17.119 5.563-15.76-48.504Z"/></svg><style>@media (prefers-color-scheme:light){:root{filter:none}}</style></svg>