<svg
  width="18"
  height="17"
  viewBox="0 0 18 17"
  fill="none"
  xmlns="http://www.w3.org/2000/svg"
>
  <path
    d="M11.934 0.837738L13.4725 2.19372L9.5476 6.46066L8.00913 5.10467L11.934 0.837738Z"
    fill="#6C121A"
  />
  <path
    d="M11.934 0.837738L13.4725 2.19372L9.5476 6.46066L8.00913 5.10467L11.934 0.837738Z"
    fill="black"
    fill-opacity="0.2"
  />
  <path
    d="M17.4961 7.53987L17.0657 9.52208L11.3283 8.32831L11.7587 6.3461L17.4961 7.53987Z"
    fill="#6C121A"
  />
  <path
    d="M17.4961 7.53987L17.0657 9.52208L11.3283 8.32831L11.7587 6.3461L17.4961 7.53987Z"
    fill="black"
    fill-opacity="0.2"
  />
  <path
    d="M14.3477 15.6061L12.3788 16.2324L10.5663 10.7717L12.5351 10.1454L14.3477 15.6061Z"
    fill="#6C121A"
  />
  <path
    d="M14.3477 15.6061L12.3788 16.2324L10.5663 10.7717L12.5351 10.1454L14.3477 15.6061Z"
    fill="black"
    fill-opacity="0.2"
  />
  <path
    d="M5.63719 16.9703L4.09872 15.6143L8.02358 11.3473L9.56205 12.7033L5.63719 16.9703Z"
    fill="#6C121A"
  />
  <path
    d="M5.63719 16.9703L4.09872 15.6143L8.02358 11.3473L9.56205 12.7033L5.63719 16.9703Z"
    fill="black"
    fill-opacity="0.2"
  />
  <path
    d="M0.0750732 10.2681L0.505496 8.28593L6.24294 9.4797L5.81251 11.4619L0.0750732 10.2681Z"
    fill="#6C121A"
  />
  <path
    d="M0.0750732 10.2681L0.505496 8.28593L6.24294 9.4797L5.81251 11.4619L0.0750732 10.2681Z"
    fill="black"
    fill-opacity="0.2"
  />
  <path
    d="M3.22347 2.20187L5.19237 1.57565L7.00494 7.03635L5.03605 7.66257L3.22347 2.20187Z"
    fill="#6C121A"
  />
  <path
    d="M3.22347 2.20187L5.19237 1.57565L7.00494 7.03635L5.03605 7.66257L3.22347 2.20187Z"
    fill="black"
    fill-opacity="0.2"
  />
</svg>
