<svg
  width="16"
  height="24"
  viewBox="0 0 16 24"
  fill="none"
  xmlns="http://www.w3.org/2000/svg"
>
  <path
    fill-rule="evenodd"
    clip-rule="evenodd"
    d="M0.304689 9.13395C0.109586 8.9294 0 8.65211 0 8.36301C0 8.07391 0.109586 7.79663 0.304689 7.59207L7.25031 0.319053C7.44566 0.114753 7.71046 0 7.98655 0C8.26264 0 8.52744 0.114753 8.72278 0.319053L15.6684 7.59207C15.7708 7.69195 15.8529 7.81239 15.9098 7.94621C15.9668 8.08003 15.9974 8.2245 15.9998 8.37098C16.0023 8.51746 15.9766 8.66296 15.9242 8.79881C15.8718 8.93465 15.7938 9.05805 15.6949 9.16164C15.5959 9.26524 15.4781 9.34691 15.3483 9.40178C15.2186 9.45665 15.0797 9.48359 14.9398 9.48101C14.7999 9.47842 14.6619 9.44636 14.5341 9.38673C14.4063 9.32711 14.2913 9.24114 14.1959 9.13395L9.02839 3.72283V15.636C9.02839 16.6732 9.334 18.2543 10.2216 19.5445C11.069 20.7781 12.4929 21.8181 14.9322 21.8181C15.2085 21.8181 15.4735 21.933 15.6689 22.1376C15.8642 22.3422 15.974 22.6197 15.974 22.909C15.974 23.1984 15.8642 23.4759 15.6689 23.6805C15.4735 23.8851 15.2085 24 14.9322 24C11.815 24 9.76463 22.6152 8.52969 20.8188C7.33366 19.0791 6.9447 17.0223 6.9447 15.636V3.72283L1.77716 9.13395C1.58182 9.33825 1.31702 9.453 1.04093 9.453C0.764836 9.453 0.500035 9.33825 0.304689 9.13395Z"
    fill="#6C121A"
  />
  <path
    fill-rule="evenodd"
    clip-rule="evenodd"
    d="M0.304689 9.13395C0.109586 8.9294 0 8.65211 0 8.36301C0 8.07391 0.109586 7.79663 0.304689 7.59207L7.25031 0.319053C7.44566 0.114753 7.71046 0 7.98655 0C8.26264 0 8.52744 0.114753 8.72278 0.319053L15.6684 7.59207C15.7708 7.69195 15.8529 7.81239 15.9098 7.94621C15.9668 8.08003 15.9974 8.2245 15.9998 8.37098C16.0023 8.51746 15.9766 8.66296 15.9242 8.79881C15.8718 8.93465 15.7938 9.05805 15.6949 9.16164C15.5959 9.26524 15.4781 9.34691 15.3483 9.40178C15.2186 9.45665 15.0797 9.48359 14.9398 9.48101C14.7999 9.47842 14.6619 9.44636 14.5341 9.38673C14.4063 9.32711 14.2913 9.24114 14.1959 9.13395L9.02839 3.72283V15.636C9.02839 16.6732 9.334 18.2543 10.2216 19.5445C11.069 20.7781 12.4929 21.8181 14.9322 21.8181C15.2085 21.8181 15.4735 21.933 15.6689 22.1376C15.8642 22.3422 15.974 22.6197 15.974 22.909C15.974 23.1984 15.8642 23.4759 15.6689 23.6805C15.4735 23.8851 15.2085 24 14.9322 24C11.815 24 9.76463 22.6152 8.52969 20.8188C7.33366 19.0791 6.9447 17.0223 6.9447 15.636V3.72283L1.77716 9.13395C1.58182 9.33825 1.31702 9.453 1.04093 9.453C0.764836 9.453 0.500035 9.33825 0.304689 9.13395Z"
    fill="black"
    fill-opacity="0.2"
  />
</svg>
